<?xml version="1.0" standalone="no"?><!DOCTYPE svg PUBLIC "-//W3C//DTD SVG 1.1//EN" "http://www.w3.org/Graphics/SVG/1.1/DTD/svg11.dtd"><svg t="1561362750276" class="icon" viewBox="0 0 1024 1024" version="1.1" xmlns="http://www.w3.org/2000/svg" p-id="4222" xmlns:xlink="http://www.w3.org/1999/xlink" width="200" height="200"><defs><style type="text/css"></style></defs><path d="M276.228205 210.479759 105.08536 210.479759c-12.694113 0-22.977317 10.281157-22.977317 22.970154l0 60.879556c0 12.684904 10.283204 22.974247 22.977317 22.974247l60.300364 0 0 58.58121 50.538023 0 0-58.58121 60.304458 0c12.688997 0 22.973224-10.289344 22.973224-22.974247L299.201429 233.449913C299.202453 220.760916 288.917202 210.479759 276.228205 210.479759zM266.484284 284.579407 114.826212 284.579407l0-41.386596 151.658072 0L266.484284 284.579407z" p-id="4223"></path><path d="M276.233322 706.699354l-171.147962 0c-12.694113 0-22.977317 10.289344-22.977317 22.974247l0 60.875462c0 12.684904 10.283204 22.978341 22.977317 22.978341l171.147962 0c12.68388 0 22.969131-10.292414 22.969131-22.978341l0-60.875462C299.202453 716.988698 288.917202 706.699354 276.233322 706.699354zM266.484284 780.807189 114.826212 780.807189l0-41.389666 151.658072 0L266.484284 780.807189z" p-id="4224"></path><path d="M205.575052 813.528428 172.856883 813.528428 172.856883 938.430112 624.069425 938.430112 624.069425 905.716037 205.570959 905.716037 205.570959 813.528428Z" p-id="4225"></path><path d="M848.541873 85.567841 172.856883 85.567841l0 124.904755 32.719192 0L205.576075 118.288057l642.96682 0c16.315594 0 29.590945 13.273305 29.590945 29.589922l0 241.460354L878.133841 634.657574l0 241.464447c0 16.316617-13.275351 29.589922-29.590945 29.589922L205.575052 905.711943l0-92.187609-32.719192 0 0 124.908848 675.686013 0c34.358529 0 62.308091-27.951609 62.308091-62.311161L910.849964 634.657574 910.849964 389.338333 910.849964 147.877979C910.850987 113.518427 882.901425 85.567841 848.541873 85.567841z" p-id="4226"></path><path d="M667.919119 253.28261 595.624583 386.495588c-19.281135 36.103266-31.073716 60.099796-35.381835 71.997778l-1.228991 0c-12.723789-28.921703-48.613184-97.318466-107.685581-205.209732l-67.985394 0 126.445854 217.203904L406.109298 470.487537l0 47.996131 121.520681 0 0 66.145489L406.109298 584.629157l0 48.609091 121.520681 0 0 96.29516 60.309574 0 0-96.29516 117.207445 0L705.146998 584.628134 587.93853 584.628134l0-66.145489 117.207445 0 0-47.996131-100.603279 0 127.678938-217.199811-64.308655 0 0-0.004093L667.919119 253.28261z" p-id="4227"></path><path d="M667.919119 253.28261" p-id="4228"></path><path d="M276.228205 482.712977c12.688997 0 22.973224-10.289344 22.973224-22.978341l0-60.871369c0-12.69309-10.284227-22.978341-22.973224-22.978341L105.08536 375.884926c-12.694113 0-22.977317 10.285251-22.977317 22.978341l0 60.871369c0 12.688997 10.283204 22.978341 22.977317 22.978341l60.300364 0 0 58.58121-60.300364 0c-12.694113 0-22.977317 10.281157-22.977317 22.967084l0 60.879556c0 12.69309 10.283204 22.978341 22.977317 22.978341l60.300364 0 0 58.58121 50.538023 0 0-58.58121 60.304458 0c12.688997 0 22.973224-10.285251 22.973224-22.978341l0-60.879556c0-12.684904-10.284227-22.967084-22.973224-22.967084l-60.304458 0 0-58.58121L276.228205 482.712977zM266.484284 574.011332l0 41.386596L114.826212 615.397928l0-41.386596L266.484284 574.011332zM114.826212 449.988668l0-41.386596 151.658072 0 0 41.386596L114.826212 449.988668z" p-id="4229"></path></svg>