<?xml version="1.0" standalone="no"?><!DOCTYPE svg PUBLIC "-//W3C//DTD SVG 1.1//EN" "http://www.w3.org/Graphics/SVG/1.1/DTD/svg11.dtd"><svg t="1562724090584" class="icon" viewBox="0 0 1024 1024" version="1.1" xmlns="http://www.w3.org/2000/svg" p-id="3054" xmlns:xlink="http://www.w3.org/1999/xlink" width="200" height="200"><defs><style type="text/css"></style></defs><path d="M413.257143 91.428571H160.182857A68.754286 68.754286 0 0 0 91.428571 160.182857v201.142857a30.171429 30.171429 0 0 0 60.16 0v-175.542857a34.194286 34.194286 0 0 1 34.194286-34.194286h201.142857a34.377143 34.377143 0 0 1 34.377143 34.194286v201.142857a34.377143 34.377143 0 0 1-34.377143 34.377143H181.577143a30.171429 30.171429 0 0 0 0 60.16H413.257143a68.754286 68.754286 0 0 0 68.754286-68.754286V160.182857A68.754286 68.754286 0 0 0 413.257143 91.428571z m450.56 0H610.742857a68.754286 68.754286 0 0 0-68.754286 68.754286V413.257143a68.754286 68.754286 0 0 0 68.754286 68.754286h253.074286A68.754286 68.754286 0 0 0 932.571429 413.257143V160.182857A68.754286 68.754286 0 0 0 863.817143 91.428571zM413.257143 541.988571H160.182857A68.754286 68.754286 0 0 0 91.428571 610.742857v253.074286A68.754286 68.754286 0 0 0 160.182857 932.571429H413.257143a68.754286 68.754286 0 0 0 68.754286-68.754286V610.742857a68.754286 68.754286 0 0 0-68.754286-68.754286z m450.56 0H610.742857a68.754286 68.754286 0 0 0-68.754286 68.754286v253.074286A68.754286 68.754286 0 0 0 610.742857 932.571429h253.074286A68.754286 68.754286 0 0 0 932.571429 863.817143V610.742857a68.754286 68.754286 0 0 0-68.754286-68.754286z m0 0" p-id="3055"></path></svg>