<?xml version="1.0" standalone="no"?><!DOCTYPE svg PUBLIC "-//W3C//DTD SVG 1.1//EN" "http://www.w3.org/Graphics/SVG/1.1/DTD/svg11.dtd"><svg t="1562835297860" class="icon" viewBox="0 0 1191 1024" version="1.1" xmlns="http://www.w3.org/2000/svg" p-id="2698" xmlns:xlink="http://www.w3.org/1999/xlink" width="232.6171875" height="200"><defs><style type="text/css"></style></defs><path d="M888.548096 663.439094a27.640856 27.640856 0 0 0-27.640856 27.582295l13.93755 151.673338a13.761867 13.761867 0 1 0 27.465172 0l13.820428-151.673338a27.757978 27.757978 0 0 0-27.582294-27.582295z m0 220.658355a27.582294 27.582294 0 1 0 27.523733 27.640856 27.582294 27.582294 0 0 0-27.523733-27.640856z m296.553585 55.106028l-248.240649-386.152122a52.705021 52.705021 0 0 0-48.312936-27.523733 57.565595 57.565595 0 0 0-48.312936 27.523733l-248.24065 386.152122a50.713943 50.713943 0 0 0-6.793092 27.640856 55.340272 55.340272 0 0 0 55.164589 55.164588h496.422738a55.340272 55.340272 0 0 0 55.164589-55.164588c0-19.383736-6.851653-27.640856-6.851653-27.640856z m-48.312936 55.164589h-496.422738a27.640856 27.640856 0 0 1-27.523733-27.523733 79.643143 79.643143 0 0 1 1.288345-11.126616l1.346906-1.346906 248.24065-386.093561 1.288345-1.346906a29.92474 29.92474 0 0 1 23.424453-13.820427 26.821 26.821 0 0 1 23.424454 12.356399c0 1.405467 1.288345 1.405467 1.288345 4.15784l248.299211 386.093561 1.288345 1.405467a50.59682 50.59682 0 0 1 1.464028 11.068055 27.523733 27.523733 0 0 1-27.640855 26.176827zM167.543406 676.849594h488.458424v-45.092074H167.543406z m0 154.952762h348.731557v-45.092073H167.543406z m0.52705-354.939037h565.642v45.092074H168.070456z" fill="" p-id="2699"></path><path d="M516.099279 978.322315H45.619124V369.872126h933.405925v181.539518l45.736246 0.351366v-419.883335h-222.532312V0h-45.736246v131.879675H262.939494V0h-45.794807v131.879675H0v892.120325h461.40318l54.461855-45.677685zM45.619124 177.733044h171.584124v51.12387h45.736246v-51.12387h493.318999v51.12387h45.736246v-51.12387h177.088871v146.402836H45.619124v-146.402836z" fill="" p-id="2700"></path></svg>