<?xml version="1.0" standalone="no"?><!DOCTYPE svg PUBLIC "-//W3C//DTD SVG 1.1//EN" "http://www.w3.org/Graphics/SVG/1.1/DTD/svg11.dtd"><svg t="1563777045753" class="icon" viewBox="0 0 1024 1024" version="1.1" xmlns="http://www.w3.org/2000/svg" p-id="3429" xmlns:xlink="http://www.w3.org/1999/xlink" width="200" height="200"><defs><style type="text/css"></style></defs><path d="M72.576 471.36a24.704 24.704 0 1 0 48.384 9.984c24.448-119.68 100.224-221.632 204.8-277.76a24.832 24.832 0 0 0 10.112-33.536 24.64 24.64 0 0 0-33.408-10.24C184.96 222.976 99.968 337.28 72.576 471.424zM507.776 1024c124.352 0 240.512-52.8 324.032-144.192a24.832 24.832 0 0 0-1.472-35.008 24.64 24.64 0 0 0-34.88 1.536c-74.24 81.28-177.28 128.128-287.68 128.128a387.84 387.84 0 0 1-280.064-120.128 24.64 24.64 0 0 0-34.88-0.512 24.832 24.832 0 0 0-0.64 35.008A437.12 437.12 0 0 0 507.84 1024z m205.632-864c118.848 63.872 204.224 180.16 230.592 316.16a24.704 24.704 0 0 1-48.448 9.472c-23.552-121.408-99.712-225.088-205.44-281.92a24.832 24.832 0 0 1-10.112-33.536c6.4-12.096 21.376-16.64 33.408-10.176zM626.56 123.904c0 68.224-53.952 123.84-120.768 123.84-66.88 0-120.832-55.616-120.832-123.84C385.024 55.616 438.976 0 505.856 0 572.672 0 626.56 55.616 626.56 123.904z m-192.256 0c0 41.152 32.128 74.24 71.488 74.24 39.296 0 71.424-33.088 71.424-74.24 0-41.216-32.128-74.368-71.424-74.368-39.36 0-71.488 33.152-71.488 74.368z m-187.52 547.712c0 69.76-55.168 126.528-123.456 126.528C55.104 798.08 0 741.312 0 671.616c0-69.76 55.104-126.592 123.392-126.592s123.392 56.832 123.392 126.592z m-197.504 0c0 42.624 33.28 76.992 74.048 76.992s74.048-34.368 74.048-76.992c0-42.688-33.28-77.056-74.048-77.056-40.704 0-74.048 34.368-74.048 77.056z m974.656 0c0 69.76-55.104 126.528-123.392 126.528s-123.392-56.832-123.392-126.528c0-69.76 55.04-126.592 123.392-126.592 68.288 0 123.392 56.832 123.392 126.592z m-197.44 0c0 42.624 33.28 76.992 74.048 76.992 40.704 0 74.048-34.368 74.048-76.992 0-42.688-33.28-77.056-74.048-77.056s-74.048 34.368-74.048 77.056z" p-id="3430"></path></svg>