<?xml version="1.0" standalone="no"?><!DOCTYPE svg PUBLIC "-//W3C//DTD SVG 1.1//EN" "http://www.w3.org/Graphics/SVG/1.1/DTD/svg11.dtd"><svg t="1560841618955" class="icon" style="" viewBox="0 0 1024 1024" version="1.1" xmlns="http://www.w3.org/2000/svg" p-id="10720" xmlns:xlink="http://www.w3.org/1999/xlink" width="200" height="200"><defs><style type="text/css"></style></defs><path d="M860.672 345.6c-7.68-15.872-27.136-22.016-43.008-14.336L512 483.84 206.336 331.264c-15.872-7.68-34.816-1.536-43.008 14.336s-1.536 34.816 14.336 43.008l320 160.256c4.608 2.048 9.216 3.584 14.336 3.584s9.728-1.024 14.336-3.072L846.336 389.12c15.872-8.704 22.016-27.648 14.336-43.52zM933.888 712.192h-19.456c-8.704 0-18.432-7.68-20.992-15.872l-11.264-28.16c-4.096-8.192-2.56-20.48 3.584-26.624l13.824-14.336c6.144-6.656 6.144-16.896 0-24.064l-23.04-24.064c-6.144-6.656-16.384-6.656-23.04 0l-13.824 14.336c-6.144 6.656-17.92 8.704-25.6 3.584l-27.136-11.776c-8.704-2.56-15.36-12.8-15.36-22.016v-20.48c0-9.216-7.168-16.896-16.384-16.896h-32.256c-8.704 0-16.384 7.68-16.384 16.896v20.48c0 9.216-7.168 19.456-15.36 22.016l-27.136 11.776c-7.68 4.096-19.456 2.56-25.6-3.584l-13.824-14.336c-6.144-6.656-16.384-6.656-23.04 0l-23.04 24.064c-6.144 6.656-6.144 16.896 0 24.064l13.824 14.336c6.144 6.656 8.192 18.432 3.584 26.624l-11.264 28.16c-2.56 9.216-12.288 15.872-20.992 15.872h-19.456c-8.704 0-16.384 7.68-16.384 16.896v33.792c0 9.216 7.168 16.896 16.384 16.896h19.456c8.704 0 18.432 7.68 20.992 15.872l11.264 28.16c4.096 8.192 2.56 20.48-3.584 26.624l-13.824 14.336c-6.144 6.656-6.144 16.896 0 24.064l23.04 24.064c6.144 6.656 16.384 6.656 23.04 0l13.824-14.336c6.144-6.656 17.92-8.704 25.6-3.584l27.136 11.776c8.704 2.56 15.36 12.8 15.36 22.016v20.48c0 9.216 7.168 16.384 16.384 16.896h32.256c8.704 0 15.872-7.68 16.384-16.896v-20.48c0-9.216 7.168-19.456 15.36-22.016l27.136-11.776c7.68-4.096 19.456-2.56 25.6 3.584l13.824 14.336c6.144 6.656 16.384 6.656 23.04 0l23.04-24.064c6.144-6.656 6.144-16.896 0-24.064l-13.824-14.336c-6.144-6.656-8.192-18.432-3.584-26.624l11.264-28.16c2.56-9.216 12.288-15.872 20.992-15.872h19.456c8.704 0 15.872-7.68 15.872-16.896v-33.792c0.512-9.728-6.656-16.896-15.872-16.896z m-195.072 116.224c-44.544 0-80.896-37.888-80.896-84.48s36.352-84.48 80.896-84.48c44.544 0.512 80.896 37.888 80.896 84.48s-36.352 84.48-80.896 84.48z" p-id="10721"></path><path d="M864.256 128H160.256C107.52 128 64 171.008 64 224.256v576c0 52.736 43.008 96.256 96.256 96.256h271.872v-64H160.256c-17.408 0-32.256-14.336-32.256-32.256V224.256c0-17.92 14.336-32.256 32.256-32.256h704c17.408 0 32.256 14.336 32.256 32.256v222.208h64V224.256c-0.512-53.248-43.52-96.256-96.256-96.256z" p-id="10722"></path></svg>