<?xml version="1.0" standalone="no"?><!DOCTYPE svg PUBLIC "-//W3C//DTD SVG 1.1//EN" "http://www.w3.org/Graphics/SVG/1.1/DTD/svg11.dtd"><svg t="1561966153702" class="icon" viewBox="0 0 1024 1024" version="1.1" xmlns="http://www.w3.org/2000/svg" p-id="3517" xmlns:xlink="http://www.w3.org/1999/xlink" width="200" height="200"><defs><style type="text/css"></style></defs><path d="M811.194182 957.533091H212.805818C146.711273 957.533091 93.090909 903.912727 93.090909 837.818182V119.714909C93.090909 53.620364 146.711273 0 212.805818 0h598.388364C877.288727 0 930.909091 53.620364 930.909091 119.714909V837.818182c0 66.094545-53.620364 119.714909-119.714909 119.714909z m48.221091-826.181818A57.902545 57.902545 0 0 0 801.512727 73.448727H222.487273a57.902545 57.902545 0 0 0-57.902546 57.902546v694.830545c0 31.930182 25.972364 57.902545 57.902546 57.902546h579.025454a57.902545 57.902545 0 0 0 57.902546-57.902546V131.258182zM721.454545 658.152727h-418.90909a29.882182 29.882182 0 0 1 0-59.764363h418.90909a29.882182 29.882182 0 0 1 0 59.764363z m0-179.479272h-418.90909a29.882182 29.882182 0 1 1 0-59.857455h418.90909a29.882182 29.882182 0 1 1 0 59.857455zM482.117818 299.194182H302.545455a29.882182 29.882182 0 1 1 0-59.857455h179.572363a29.882182 29.882182 0 1 1 0 59.857455z" p-id="3518"></path></svg>