<?xml version="1.0" standalone="no"?><!DOCTYPE svg PUBLIC "-//W3C//DTD SVG 1.1//EN" "http://www.w3.org/Graphics/SVG/1.1/DTD/svg11.dtd"><svg t="1560840735784" class="icon" style="" viewBox="0 0 1024 1024" version="1.1" xmlns="http://www.w3.org/2000/svg" p-id="5232" xmlns:xlink="http://www.w3.org/1999/xlink" width="200" height="200"><defs><style type="text/css"></style></defs><path d="M429.653333 868.266667h-315.733333A96.853333 96.853333 0 0 1 21.333333 768V207.786667a96.853333 96.853333 0 0 1 92.586667-100.266667h784.64a96.853333 96.853333 0 0 1 92.586667 100.266667v183.466666a21.333333 21.333333 0 0 1-42.666667 0v-183.466666a54.186667 54.186667 0 0 0-49.92-57.6H113.92A54.186667 54.186667 0 0 0 64 207.786667V768a54.186667 54.186667 0 0 0 49.92 57.6h315.733333a21.333333 21.333333 0 1 1 0 42.666667zM896 867.413333h-135.68a21.333333 21.333333 0 1 1 0-42.666666H896a53.76 53.76 0 0 0 53.76-53.76v-157.013334a21.333333 21.333333 0 0 1 42.666667 0v157.013334A96.426667 96.426667 0 0 1 896 867.413333z" p-id="5233"></path><path d="M507.733333 455.68a21.333333 21.333333 0 0 1-10.24-2.56L117.333333 241.92a21.333333 21.333333 0 1 1 20.48-37.12l369.92 204.8 366.933334-204.8a21.333333 21.333333 0 0 1 20.906666 37.12l-377.6 210.773333a21.333333 21.333333 0 0 1-10.24 2.986667zM593.92 916.48a21.333333 21.333333 0 0 1-15.36-6.826667L358.4 678.826667a21.333333 21.333333 0 1 1 30.72-29.44l204.373333 213.333333 371.626667-390.826667a21.333333 21.333333 0 0 1 30.72 29.44l-387.413333 407.04a21.333333 21.333333 0 0 1-14.506667 8.106667z" p-id="5234"></path></svg>