<?xml version="1.0" standalone="no"?><!DOCTYPE svg PUBLIC "-//W3C//DTD SVG 1.1//EN" "http://www.w3.org/Graphics/SVG/1.1/DTD/svg11.dtd"><svg t="1560841688376" class="icon" style="" viewBox="0 0 1219 1024" version="1.1" xmlns="http://www.w3.org/2000/svg" p-id="10846" xmlns:xlink="http://www.w3.org/1999/xlink" width="238.0859375" height="200"><defs><style type="text/css"></style></defs><path d="M629.028571 522.727619L251.611429 295.984762l-24.868572 41.935238 402.285714 243.809524 590.019048-341.333334V125.318095A125.318095 125.318095 0 0 0 1093.729524 0H125.318095A125.318095 125.318095 0 0 0 0 125.318095v773.36381A125.318095 125.318095 0 0 0 125.318095 1024h968.411429A125.318095 125.318095 0 0 0 1219.047619 898.681905V467.626667h-48.761905v431.542857A76.55619 76.55619 0 0 1 1093.729524 975.238095H125.318095A76.55619 76.55619 0 0 1 48.761905 898.681905V125.318095A76.55619 76.55619 0 0 1 125.318095 48.761905h968.411429A76.55619 76.55619 0 0 1 1170.285714 125.318095v83.382857z" fill="#6A6A6A" p-id="10847"></path></svg>