<?xml version="1.0" standalone="no"?><!DOCTYPE svg PUBLIC "-//W3C//DTD SVG 1.1//EN" "http://www.w3.org/Graphics/SVG/1.1/DTD/svg11.dtd"><svg t="1561619510178" class="icon" viewBox="0 0 1024 1024" version="1.1" xmlns="http://www.w3.org/2000/svg" p-id="2211" xmlns:xlink="http://www.w3.org/1999/xlink" width="200" height="200"><defs><style type="text/css"></style></defs><path d="M850 65H398.3c-59.6 0-108 48.4-108 108v11H172.4c-59.6 0-108 48.4-108 108v559.4c0 59.6 48.4 108 108 108h451.7c59.6 0 108-48.4 108-108v-11H850c59.6 0 108-48.4 108-108V173c0-59.6-48.5-108-108-108zM680.1 851.4c0 30.9-25.1 56-56 56H172.4c-30.9 0-56-25.1-56-56V292c0-30.9 25.1-56 56-56h117.9v496.4c0 59.6 48.4 108 108 108h281.8v11z m225.9-119c0 30.9-25.1 56-56 56H398.3c-30.9 0-56-25.1-56-56V173c0-30.9 25.1-56 56-56H850c30.9 0 56 25.1 56 56v559.4z" p-id="2212"></path><path d="M784.1 237.4h-320c-13.7 0-25 11.2-25 25v2.7c0 13.7 11.2 25 25 25h320.1c13.7 0 25-11.2 25-25v-2.7c-0.1-13.8-11.3-25-25.1-25z m0 174.8h-320c-13.7 0-25 11.2-25 25v2.7c0 13.7 11.2 25 25 25h320.1c13.7 0 25-11.2 25-25v-2.7c-0.1-13.8-11.3-25-25.1-25z m0 174.7h-320c-13.7 0-25 11.2-25 25v2.7c0 13.7 11.2 25 25 25h320.1c13.7 0 25-11.2 25-25v-2.7c-0.1-13.7-11.3-25-25.1-25z" p-id="2213"></path></svg>