<?xml version="1.0" standalone="no"?><!DOCTYPE svg PUBLIC "-//W3C//DTD SVG 1.1//EN" "http://www.w3.org/Graphics/SVG/1.1/DTD/svg11.dtd"><svg t="1561362704272" class="icon" viewBox="0 0 1024 1024" version="1.1" xmlns="http://www.w3.org/2000/svg" p-id="3364" xmlns:xlink="http://www.w3.org/1999/xlink" width="200" height="200"><defs><style type="text/css"></style></defs><path d="M286.694263 535.316598H23.270638a23.270638 23.270638 0 0 1-23.270638-23.270638A511.95404 511.95404 0 0 1 931.98906 219.301331a23.270638 23.270638 0 1 1-38.163847 26.528527A465.412764 465.412764 0 0 0 47.704808 488.775321h229.448493l216.416935-215.486109a21.8744 21.8744 0 0 1 3.490596-2.327064 23.270638 23.270638 0 0 1 3.490596-2.327064 23.270638 23.270638 0 0 1 4.421421-1.163532h8.610136a23.270638 23.270638 0 0 1 4.421421 0 23.270638 23.270638 0 0 1 3.956009 2.094357 21.8744 21.8744 0 0 1 3.490596 1.861651L698.119146 421.057764a23.270638 23.270638 0 1 1-30.25183 35.37137l-155.913276-134.969701-209.435743 207.10868a23.270638 23.270638 0 0 1-15.591328 6.283072zM1000.637443 488.775321H735.352167a20.245455 20.245455 0 0 0-13.962383 6.050366l-209.435744 207.806799-157.076807-134.969701A23.270638 23.270638 0 0 0 325.788935 603.034155l173.366254 148.932084a23.270638 23.270638 0 0 0 4.654128 2.792477l2.327064 1.396238a23.270638 23.270638 0 0 0 8.37743 1.628945 23.270638 23.270638 0 0 0 9.075549-1.861651l2.327063-1.628945a23.270638 23.270638 0 0 0 4.886834-3.257889L746.75478 535.316598h229.448493A465.412764 465.412764 0 0 1 130.082868 778.029354a23.270638 23.270638 0 1 0-38.163847 26.528528A511.95404 511.95404 0 0 0 1023.908081 512.04596a23.270638 23.270638 0 0 0-23.270638-23.270639z" p-id="3365"></path></svg>