<?xml version="1.0" standalone="no"?><!DOCTYPE svg PUBLIC "-//W3C//DTD SVG 1.1//EN" "http://www.w3.org/Graphics/SVG/1.1/DTD/svg11.dtd"><svg t="1565170929523" class="icon" viewBox="0 0 1365 1024" version="1.1" xmlns="http://www.w3.org/2000/svg" p-id="7759" xmlns:xlink="http://www.w3.org/1999/xlink" width="266.6015625" height="200"><defs><style type="text/css"></style></defs><path d="M1109.333333 512a256.1024 256.1024 0 0 0-256 256c0 141.380267 114.756267 256 256 256s256-114.619733 256-256c0-141.380267-114.756267-256-256-256z m142.2336 284.433067h-113.800533v113.800533h-56.866133v-113.800533h-113.800534v-56.866134h113.800534v-113.800533h56.866133v113.800533h113.800533v56.866134z m-1024 0l227.5328-339.0464 141.1072 111.5136 143.36-227.566934 105.403734 168.618667a366.3872 366.3872 0 0 0-103.936 286.481067H227.566933zM843.093333 1024H0V0h1251.566933v426.734933a366.7968 366.7968 0 0 0-113.800533-27.101866V113.7664h-1024v796.4672h654.336A370.176 370.176 0 0 0 843.093333 1024zM312.900267 398.2336a85.333333 85.333333 0 1 1 0-170.666667 85.333333 85.333333 0 0 1 0 170.666667z" p-id="7760"></path></svg>